<?xml version="1.0" encoding="UTF-8" standalone="no"?>
<svg
   xmlns:svg="http://www.w3.org/2000/svg"
   xmlns="http://www.w3.org/2000/svg"
   version="1.0"
   width="25pt"
   height="25pt"
   viewBox="0 0 25 25"
   preserveAspectRatio="xMidYMid meet"
   id="svg16">
  <defs
     id="defs20" />
  <g
     transform="matrix(0.00191218,0,0,-0.00191218,0.25657842,22.884484)"
     fill="#000000"
     stroke="none"
     id="g14">
    <path
       d="m 9780,10984 c -135,-29 -156,-44 -1190,-864 -774,-614 -987,-778 -995,-767 -5,7 -223,281 -482,609 -369,465 -481,600 -510,614 -26,13 -60,19 -105,19 -58,0 -72,-4 -110,-31 -53,-37 -1810,-1430 -1928,-1528 -225,-187 -473,-447 -647,-677 -450,-594 -714,-1247 -819,-2024 -24,-176 -30,-684 -10,-882 47,-469 161,-901 351,-1322 39,-87 44,-107 33,-115 C 3165,3863 298,1577 257,1535 148,1424 71,1287 28,1129 9,1059 6,1021 6,900 7,773 10,744 34,666 97,457 226,275 392,162 465,112 596,53 685,29 783,2 1002,-3 1090,19 c 124,30 232,76 316,133 28,19 736,578 1572,1241 837,664 1525,1207 1530,1207 5,0 52,-33 106,-74 531,-408 1184,-687 1862,-796 383,-62 857,-65 1243,-9 686,100 1335,367 1887,776 183,136 1932,1527 1966,1564 23,25 40,57 48,89 24,101 30,92 -495,753 -261,329 -475,602 -475,606 0,4 441,357 979,784 538,427 1000,800 1025,829 252,289 158,758 -186,927 -186,92 -362,92 -543,1 -63,-31 -289,-207 -1055,-815 l -975,-774 -21,22 c -68,70 -1515,1910 -1508,1916 5,5 434,344 954,756 541,428 977,780 1020,824 120,122 170,245 170,416 0,173 -51,296 -175,420 -91,92 -165,136 -281,165 -89,23 -181,24 -274,4 z"
       id="path12" />
  </g>
</svg>
